<svg version="1.1" xmlns="http://www.w3.org/2000/svg" xmlns:xlink="http://www.w3.org/1999/xlink" x="0px" y="0px"
	 viewBox="-245 216 1728 1296" style="enable-background:new -245 0 1541 1728;" xml:space="preserve">
<style>.st0{fill:#bdc3c7;}</style>
<path class="st0" d="M728,1439.6c-6.8-1.1-14-1.1-20.3-3.3c-55.3-19.6-106.7-46.5-153.3-82.5c-72.8-56.3-108-132.2-114-222.2
		c-3.5-52.7-4-105.7-4.3-158.6c-0.6-107.7-0.2-215.3-0.2-323c0-7,0-14.1,0-24.4c-44.7,2.4-87.1,4.3-129.5,7.2
		c-16.8,1.1-33.4,4.2-50.1,6.4c-60,7.8-103.9,40.8-133.2,91.6c-13.8,23.9-29.8,31.4-55.8,24.6c0.1-1.3-0.1-3.6,0.6-5.5
		c22.5-66.1,54.2-127,100-180.1c53-61.4,121.2-94.4,200.9-101.1c62.8-5.2,126-6.1,189.1-7.4c102.2-2,204.4-1.9,306.6-4.5
		c30.4-0.8,60.9-6.5,90.9-12.4c51.3-10.2,87.1-43.3,112.2-86.6c13.8-23.7,29.6-31.8,56-24.7c-0.4,2.3-0.4,5.7-1.5,8.7
		c-23.9,67.4-55.4,131.1-105.1,183.2c-76.3,80-122.5,174.2-141.8,282.4c-0.3,1.7,0,3.5,0,7.1c13.4-6.7,25.8-13.3,38.5-19.2
		c42.3-19.7,85-25.1,128.2-2.5c34.4,17.9,56.5,46.6,69.5,82c33.6,91.3,28.4,180.8-18.9,266.1c-44.8,80.6-143.3,124.9-226.6,103.9
		c-51.7-13-88.3-45.4-111.7-92.3c-33.4-66.8-43.6-138.4-37.8-212.1c9.3-117.9,51.5-222.7,128.2-313.3c2.2-2.6,4.2-5.5,4.8-6.3
		c-82.5,0-165.4,0-249.3,0c-0.4,9.4-0.9,14.6-0.9,19.8c0,151.6-0.7,303.1,0.6,454.7c0.4,48,6.2,95.9,9.9,143.8
		c5.2,68.1,40.6,117.5,98.6,150.1C730.4,1401.7,733.1,1416.6,728,1439.6z M856,1003.2c0,25.2-1.1,50.6,0.3,75.7
		c2,35.9,4,72.2,21.1,105.2c10.8,20.8,28.1,32.9,52.1,32.5c24.1-0.4,40.6-13.2,50.4-34.7c3.7-8.1,8-16.7,8.7-25.4
		c4.4-51.3,10.7-102.7,10.6-154.1c-0.1-36.2-5.3-73.4-15.2-108.2c-14.9-52.4-55.6-67.2-104.2-43.9c-10,4.8-14.4,11-15.2,21.6"/>
</svg>
